<svg id="ad73ed09-b4cd-4bd2-ac92-b282527ca064" data-name="Capa 1" xmlns="http://www.w3.org/2000/svg" viewBox="0 0 2000 2000"><defs><style>.ee2dcb69-3489-477b-9e25-fb5c29082bda{fill:#fff;}</style></defs><path class="ee2dcb69-3489-477b-9e25-fb5c29082bda" d="M1358.81,1178l-4.57,3.16-1.28.88-3.27,2.26-4.48,3.08,0,0-3.76,2.56q-5.75,3.93-11.41,7.76l-6.4,4.32q-5.34,3.6-10.62,7.11-2.6,1.74-5.18,3.44c-441.31,292.23-500.85,143.88-501.5,142.24h0c65-53.6,115.73-79,115.73-79-1.53-29.1-36.33-64.69-36.33-64.69q-16.1,9.42-33.12,19.25s-44.25,36.08-227.4-150.47c0,0,167.15,19.4,217.87-22.81s328.9-737.91,157-765.38c0,0,267.21-7.05,330.53,419.85L1259,948.57s-2.69,6.72-20.17,23.74C1259.45,1039.65,1306.57,1112.31,1358.81,1178Z"/><path class="ee2dcb69-3489-477b-9e25-fb5c29082bda" d="M1727.81,2000H453.26S593.34,1628.06,693,1474.48c0,0,172.11,42.65,652.13-287l0,0,4.48-3.08,2.3-1.58,1-.68,1.28-.88,4.57-3.16c94.88,119.38,206.62,215.83,206.62,215.83C1684.91,1447.47,1727.81,2000,1727.81,2000Z"/><path class="ee2dcb69-3489-477b-9e25-fb5c29082bda" d="M934.64,729.58c-24,71.08-52,143.2-78.84,203.07-12.11,27-23.56,50.52-33.09,67.89-13.27,24.19-18.6,28.84-18.82,29-10.26,8.53-39.74,22.86-121.85,22.86-28.86,0-55-1.86-69.55-3.14-8.52-27.91-29.63-103.68-39.25-196.63-7.11-68.64-6.59-132.86,1.54-190.88,10-71.69,31.79-134,64.65-185.16,31-48.28,72.55-87.54,123.52-116.69,57.12-32.67,127.52-53.51,209.29-62,10.14,2.15,23.43,9,31.24,37.08C1022,401.59,996.9,545.39,934.64,729.58Z"/></svg>